HIERARCHY
ROOT Hips
{
	OFFSET 0.000000 89.005402 0.000000
	CHANNELS 6 Xposition Yposition Zposition Xrotation Yrotation Zrotation
	JOINT Spine
	{
		OFFSET 0.116900 10.681000 0.373400
		CHANNELS 3 Xrotation Yrotation Zrotation
		JOINT Spine1
		{
			OFFSET 0.000000 13.840401 0.053500
			CHANNELS 3 Xrotation Yrotation Zrotation
			JOINT Spine2
			{
				OFFSET 0.000000 14.712700 -0.366200
				CHANNELS 3 Xrotation Yrotation Zrotation
				JOINT Neck
				{
					OFFSET 0.000000 35.415497 -3.314200
					CHANNELS 3 Xrotation Yrotation Zrotation
					JOINT Head
					{
						OFFSET 0.000000 16.899200 1.218300
						CHANNELS 3 Xrotation Yrotation Zrotation
						JOINT HeadTop_End
						{
							OFFSET 0.000000 22.206207 2.192500
							CHANNELS 3 Xrotation Yrotation Zrotation
							End Site
							{
								OFFSET 0.000000 22.314178 0.000000
							}
						}
					}
				}
				JOINT LeftShoulder
				{
					OFFSET 12.896400 26.716293 -4.548400
					CHANNELS 3 Xrotation Yrotation Zrotation
					JOINT LeftArm
					{
						OFFSET 19.027000 -4.857010 -1.718400
						CHANNELS 3 Xrotation Yrotation Zrotation
						JOINT LeftForeArm
						{
							OFFSET 24.179897 0.000000 0.000000
							CHANNELS 3 Xrotation Yrotation Zrotation
							JOINT LeftHand
							{
								OFFSET 27.156403 0.000000 0.000000
								CHANNELS 3 Xrotation Yrotation Zrotation
								JOINT LeftHandIndex1
								{
									OFFSET 16.441200 0.000000 0.000000
									CHANNELS 3 Xrotation Yrotation Zrotation
									JOINT LeftHandIndex2
									{
										OFFSET 4.821899 0.000000 0.000000
										CHANNELS 3 Xrotation Yrotation Zrotation
										JOINT LeftHandIndex3
										{
											OFFSET 6.386497 0.000000 0.000000
											CHANNELS 3 Xrotation Yrotation Zrotation
											JOINT LeftHandIndex4
											{
												OFFSET 5.188988 0.000000 0.000000
												CHANNELS 3 Xrotation Yrotation Zrotation
												End Site
												{
													OFFSET -0.178703 5.185913 0.000177
												}
											}
										}
									}
								}
								JOINT LeftHandThumb1
								{
									OFFSET 6.534897 -5.032593 5.900300
									CHANNELS 3 Xrotation Yrotation Zrotation
									JOINT LeftHandThumb2
									{
										OFFSET 3.818176 -2.204422 2.204423
										CHANNELS 3 Xrotation Yrotation Zrotation
										JOINT LeftHandThumb3
										{
											OFFSET 3.252098 -1.877594 1.877601
											CHANNELS 3 Xrotation Yrotation Zrotation
											JOINT LeftHandThumb4
											{
												OFFSET 5.251778 -3.032120 3.032117
												CHANNELS 3 Xrotation Yrotation Zrotation
												End Site
												{
													OFFSET 0.000023 6.780014 0.000000
												}
											}
										}
									}
								}
							}
						}
					}
				}
				JOINT RightShoulder
				{
					OFFSET -12.896300 26.716293 -4.548400
					CHANNELS 3 Xrotation Yrotation Zrotation
					JOINT RightArm
					{
						OFFSET -19.027000 -4.857010 -1.718400
						CHANNELS 3 Xrotation Yrotation Zrotation
						JOINT RightForeArm
						{
							OFFSET -24.179897 0.000000 0.000000
							CHANNELS 3 Xrotation Yrotation Zrotation
							JOINT RightHand
							{
								OFFSET -27.156403 0.000000 0.000000
								CHANNELS 3 Xrotation Yrotation Zrotation
								JOINT RightHandThumb1
								{
									OFFSET -6.591202 -4.852203 5.988100
									CHANNELS 3 Xrotation Yrotation Zrotation
									JOINT RightHandThumb2
									{
										OFFSET -3.818176 -2.204422 2.204423
										CHANNELS 3 Xrotation Yrotation Zrotation
										JOINT RightHandThumb3
										{
											OFFSET -3.252098 -1.877594 1.877601
											CHANNELS 3 Xrotation Yrotation Zrotation
											JOINT RightHandThumb4
											{
												OFFSET -5.251778 -3.032120 3.032117
												CHANNELS 3 Xrotation Yrotation Zrotation
												End Site
												{
													OFFSET -0.000023 6.780014 0.000000
												}
											}
										}
									}
								}
								JOINT RightHandIndex1
								{
									OFFSET -16.029404 0.000000 0.000000
									CHANNELS 3 Xrotation Yrotation Zrotation
									JOINT RightHandIndex2
									{
										OFFSET -5.213303 0.000000 0.000000
										CHANNELS 3 Xrotation Yrotation Zrotation
										JOINT RightHandIndex3
										{
											OFFSET -6.386528 0.000000 0.000000
											CHANNELS 3 Xrotation Yrotation Zrotation
											JOINT RightHandIndex4
											{
												OFFSET -5.189026 0.000000 0.000000
												CHANNELS 3 Xrotation Yrotation Zrotation
												End Site
												{
													OFFSET 0.236702 5.183624 0.001972
												}
											}
										}
									}
								}
							}
						}
					}
				}
			}
		}
	}
	JOINT LeftUpLeg
	{
		OFFSET 14.073000 -7.904099 -1.463000
		CHANNELS 3 Xrotation Yrotation Zrotation
		JOINT LeftLeg
		{
			OFFSET -0.109806 -34.073280 4.093200
			CHANNELS 3 Xrotation Yrotation Zrotation
			JOINT LeftFoot
			{
				OFFSET 0.109806 -29.899420 -6.319000
				CHANNELS 3 Xrotation Yrotation Zrotation
				JOINT LeftToeBase
				{
					OFFSET 1.551100 -14.988700 20.535801
					CHANNELS 3 Xrotation Yrotation Zrotation
					JOINT LeftToe_End
					{
						OFFSET 0.221200 0.570800 13.248301
						CHANNELS 3 Xrotation Yrotation Zrotation
						End Site
						{
							OFFSET 0.000000 13.262435 0.000000
						}
					}
				}
			}
		}
	}
	JOINT RightUpLeg
	{
		OFFSET -13.839300 -7.904099 -1.463000
		CHANNELS 3 Xrotation Yrotation Zrotation
		JOINT RightLeg
		{
			OFFSET 0.109694 -34.073219 4.093300
			CHANNELS 3 Xrotation Yrotation Zrotation
			JOINT RightFoot
			{
				OFFSET -0.109694 -29.899384 -6.319200
				CHANNELS 3 Xrotation Yrotation Zrotation
				JOINT RightToeBase
				{
					OFFSET -1.551100 -14.988700 20.535801
					CHANNELS 3 Xrotation Yrotation Zrotation
					JOINT RightToe_End
					{
						OFFSET -0.221200 0.570900 13.248299
						CHANNELS 3 Xrotation Yrotation Zrotation
						End Site
						{
							OFFSET 0.000000 13.262440 0.000000
						}
					}
				}
			}
		}
	}
}
MOTION
Frames: 7
Frame Time: 0.033333
-1.566334 36.864624 0.654652 -40.742618 -33.041539 -20.614814 58.823911 3.546146 1.367375 10.734613 0.744714 -4.521332 17.520055 -0.085149 -4.562561 -10.626370 7.119771 2.460947 -15.542302 20.386160 10.545789 0.000002 -0.000000 -0.000002 -37.559039 -4.830602 1.310668 -73.293312 -19.461668 -69.158138 0.000019 -49.511703 0.000027 -122.199270 3.126756 22.360330 -0.212817 3.933713 -36.747135 2.942137 5.078903 -60.144624 0.513670 2.400823 -24.150507 -0.000002 -0.000000 0.000003 4.709224 9.560365 3.111994 19.473182 -1.474897 7.636916 -4.536184 -9.613109 1.492978 0.000003 0.000002 -0.000003 -42.139822 -9.769751 -7.575438 -51.815649 45.272116 94.913859 0.000120 103.657464 -0.000130 -37.420038 -24.461447 -24.583526 8.377145 -4.904129 11.021991 21.620189 -18.183905 -18.379201 -0.702861 -49.821213 -32.535118 0.000003 0.000000 0.000002 -0.920048 1.683590 12.434976 0.748116 -2.533478 32.898279 0.615649 -2.316066 29.767826 -0.000000 -0.000000 0.000003 -73.169569 -8.712355 25.528785 118.880385 -12.217194 -0.995219 -9.669905 -4.583465 -2.874295 1.387043 -0.003087 0.445139 -0.000000 0.000001 -0.000000 37.910101 14.233470 -42.495620 126.999294 61.009374 20.059683 -101.883671 14.264264 -7.920366 -30.134276 -0.000004 -0.000019 0.000000 0.000002 0.000000 
-1.566336 36.864616 0.654652 -40.742618 -33.041539 -20.614814 58.806344 3.544869 1.388301 10.732631 0.743043 -4.551773 17.517670 -0.084698 -4.593143 -10.286953 7.158639 2.305071 -15.421580 20.363673 10.541682 -0.000002 0.000000 -0.000001 -37.554094 -4.755849 1.415837 -72.323097 -19.377706 -68.884753 -0.000015 -51.954315 -0.000003 -122.250564 2.151464 23.327237 -0.432913 3.745943 -38.087150 2.940754 5.078109 -60.129044 0.513691 2.400869 -24.150922 0.000000 0.000000 -0.000000 4.709224 9.560370 3.111994 19.473178 -1.474896 7.636916 -4.536186 -9.613106 1.492981 0.000002 -0.000001 0.000000 -42.040084 -9.609723 -7.387128 -50.577206 45.125718 94.147703 0.000177 105.082467 -0.000170 -37.130725 -24.883924 -24.659350 8.477357 -5.127584 11.040493 20.957269 -19.143890 -18.599092 -0.853635 -49.827193 -32.679095 -0.000002 -0.000001 -0.000002 -1.599564 0.231531 25.100906 1.405837 -3.336164 45.690837 0.615649 -2.316066 29.767822 0.000000 -0.000000 0.000001 -73.169549 -8.712420 25.528841 118.880371 -12.217310 -0.995239 -9.669868 -4.583428 -2.874435 1.387043 -0.003086 0.445139 -0.000000 -0.000001 -0.000000 37.910101 14.233431 -42.495654 126.999322 61.009367 20.059659 -101.883589 14.264239 -7.920374 -30.134279 -0.000000 -0.000018 -0.000000 -0.000003 -0.000001 
-1.566240 36.865997 0.641361 -40.742618 -33.041539 -20.614814 58.607811 3.398791 1.582390 10.627123 0.735577 -4.509115 17.406725 -0.086066 -4.553643 -9.912478 7.233084 2.084757 -15.095662 20.594335 10.443666 -0.000001 -0.000001 -0.000000 -37.532463 -4.589210 1.382523 -72.191124 -19.553005 -68.660620 0.000006 -52.470814 0.000004 -122.532788 1.744511 23.081035 0.149584 4.611327 -40.330908 2.977718 5.099104 -60.545829 0.529958 2.436778 -24.536135 0.000000 -0.000001 0.000003 4.709224 9.560373 3.111993 19.473180 -1.474898 7.636918 -4.536184 -9.613106 1.492980 -0.000000 -0.000002 0.000000 -41.995384 -10.121942 -7.000320 -50.977735 45.234120 94.712259 0.000066 104.865759 -0.000060 -36.232996 -24.956535 -23.532756 8.766773 -5.810282 11.098966 20.883085 -19.237590 -18.648074 -1.045154 -49.834378 -32.861946 -0.000001 0.000000 0.000002 -1.687407 -0.130401 27.877207 1.573352 -3.491583 48.503601 0.615648 -2.316066 29.767819 -0.000000 0.000000 0.000000 -73.175901 -8.719034 25.529965 118.855387 -12.218945 -0.994601 -9.638203 -4.583941 -2.884291 1.387043 -0.003085 0.445139 -0.000000 0.000002 0.000000 37.894914 14.239952 -42.485518 127.010100 61.010549 20.075044 -101.883090 14.276594 -7.927540 -30.134279 -0.000010 -0.000019 -0.000001 -0.000001 -0.000000 
-1.572403 36.872330 0.569073 -40.742618 -33.041539 -20.614814 58.569897 3.124895 1.665276 10.599549 0.705070 -4.603489 17.370337 -0.134927 -4.646629 -10.273620 7.035023 2.452384 -14.331111 21.250395 10.202598 -0.000001 -0.000000 0.000001 -37.513434 -4.604041 1.128183 -72.597780 -19.873253 -68.515410 -0.000016 -52.318453 -0.000017 -122.366090 1.803071 23.164750 0.584705 5.204613 -42.486218 2.977029 5.098685 -60.537790 0.529100 2.434895 -24.515992 -0.000000 -0.000000 -0.000002 4.709224 9.560368 3.111993 19.473178 -1.474892 7.636914 -4.536186 -9.613105 1.492981 0.000002 0.000000 -0.000002 -42.014273 -10.313715 -6.956591 -51.384097 45.267646 94.969751 0.000058 104.638464 -0.000072 -36.261474 -24.646130 -23.339998 9.059575 -6.493333 11.160603 20.452020 -19.853936 -18.809282 -0.824802 -49.826110 -32.651508 -0.000000 0.000000 -0.000000 -1.597129 0.243153 25.016997 1.400882 -3.331333 45.605750 0.615648 -2.316066 29.767822 0.000000 -0.000000 0.000001 -73.196904 -8.763537 25.539901 118.737880 -12.236890 -0.989820 -9.494795 -4.584501 -2.944407 1.387043 -0.003086 0.445139 0.000000 -0.000001 -0.000000 37.841253 14.256177 -42.410106 127.062064 61.007612 20.148505 -101.913150 14.347688 -7.964170 -30.134279 -0.000007 -0.000018 -0.000000 -0.000001 -0.000000 
-1.612314 36.873169 0.541721 -40.742618 -33.041539 -20.614814 58.556605 2.796590 1.698743 10.622256 0.658489 -4.805481 17.382080 -0.213240 -4.845002 -10.751140 6.736604 3.089375 -13.771152 22.024322 9.999312 -0.000001 0.000001 0.000001 -37.502677 -4.767312 0.706387 -72.797631 -20.467108 -68.052303 -0.000053 -52.353847 -0.000034 -122.329275 1.792594 23.518807 0.671418 5.317473 -42.998104 2.986952 5.104289 -60.649758 0.533735 2.445017 -24.624753 -0.000000 0.000002 0.000000 4.709225 9.560370 3.111993 19.473178 -1.474895 7.636914 -4.536186 -9.613104 1.492977 -0.000001 -0.000000 0.000001 -41.963647 -10.651111 -6.669074 -51.867743 45.506658 95.232235 0.000006 104.503527 -0.000004 -36.514731 -24.480516 -23.364219 8.580856 -5.373575 11.061432 21.003212 -19.017714 -18.548839 -0.965495 -49.831571 -32.785810 -0.000000 -0.000002 -0.000001 -1.432242 0.729090 21.105023 1.178804 -3.098695 41.647328 0.615649 -2.316065 29.767829 0.000000 -0.000000 -0.000000 -73.164768 -8.839082 25.562924 118.702554 -12.287830 -0.979917 -9.475860 -4.576101 -3.025003 1.387044 -0.003086 0.445139 0.000000 -0.000001 0.000000 37.908438 14.193306 -42.261160 127.081421 60.970674 20.179639 -102.071221 14.433426 -7.990843 -30.134276 -0.000002 -0.000017 0.000001 0.000001 0.000000 
-1.625031 36.871262 0.555614 -40.742618 -33.041539 -20.614814 58.552425 2.492881 1.692677 10.687148 0.615209 -4.976299 17.435805 -0.277726 -5.009883 -10.942033 6.707761 3.481455 -13.885564 22.397519 9.904732 -0.000003 -0.000000 0.000001 -37.486161 -4.568907 0.760105 -73.462366 -21.113322 -68.247373 0.000031 -51.579106 0.000022 -122.644571 1.892266 23.265197 0.644524 5.294582 -43.156106 2.987751 5.104720 -60.658589 0.534158 2.445953 -24.634858 -0.000000 -0.000004 0.000001 4.709224 9.560372 3.111993 19.473180 -1.474895 7.636915 -4.536189 -9.613102 1.492980 -0.000002 0.000001 -0.000001 -41.995937 -11.079246 -6.656489 -52.565532 45.561122 95.655413 0.000130 104.279619 -0.000131 -36.742381 -24.368206 -23.407470 8.400758 -4.951065 11.022727 21.205613 -18.740198 -18.471084 -1.035521 -49.834221 -32.852554 0.000003 0.000001 0.000002 -1.279841 1.072577 18.169350 1.023163 -2.914588 38.681041 0.615649 -2.316066 29.767815 -0.000000 -0.000000 0.000000 -73.145076 -8.853687 25.568533 118.729452 -12.301804 -0.977700 -9.517869 -4.572493 -3.036126 1.387044 -0.003087 0.445139 0.000000 0.000000 -0.000000 37.953473 14.162898 -42.229263 127.070738 60.957581 20.166740 -102.122434 14.442860 -7.988891 -30.134279 -0.000006 -0.000019 0.000001 -0.000002 -0.000000 
-1.601902 36.869415 0.585781 -40.742618 -33.041539 -20.614814 58.592955 2.422627 1.640501 10.733953 0.619129 -4.997418 17.478693 -0.275959 -5.029975 -10.862212 6.857803 3.434095 -14.373669 22.194795 10.055882 0.000000 -0.000001 0.000000 -37.503862 -4.312035 1.380815 -73.556028 -20.668685 -68.649173 0.000037 -51.069519 0.000036 -123.333190 1.831275 22.308788 0.411791 4.982416 -41.739621 2.985073 5.103220 -60.628563 0.533109 2.443660 -24.610172 0.000005 -0.000002 -0.000003 4.709224 9.560371 3.111994 19.473177 -1.474896 7.636916 -4.536187 -9.613106 1.492981 -0.000001 0.000004 -0.000002 -42.232969 -11.089897 -7.238899 -52.999184 45.553663 95.701756 -0.000013 103.984596 -0.000016 -36.676982 -24.363131 -23.342583 8.419005 -5.005201 11.032659 21.205036 -18.775302 -18.508757 -1.095060 -49.836574 -32.909183 -0.000000 -0.000002 -0.000001 -1.289053 1.053826 18.334400 1.031662 -2.925123 38.847708 0.615648 -2.316066 29.767822 -0.000000 -0.000000 -0.000000 -73.157985 -8.803447 25.553935 118.773670 -12.270463 -0.984066 -9.558720 -4.576890 -2.979778 1.387044 -0.003086 0.445139 0.000000 0.000000 -0.000000 37.928515 14.193236 -42.326269 127.048909 60.978857 20.134742 -102.030220 14.381967 -7.967159 -30.134279 -0.000006 -0.000018 -0.000000 -0.000001 0.000000 
